<svg width="28" height="20" viewBox="0 0 28 20" fill="none" xmlns="http://www.w3.org/2000/svg">
<path d="M1.57716 10.4352C1.47298 10.1546 1.47298 9.84585 1.57716 9.56521C2.59178 7.10502 4.31405 5.00151 6.52562 3.52133C8.73719 2.04115 11.3385 1.25098 13.9997 1.25098C16.6609 1.25098 19.2621 2.04115 21.4737 3.52133C23.6853 5.00151 25.4075 7.10502 26.4222 9.56521C26.5263 9.84585 26.5263 10.1546 26.4222 10.4352C25.4075 12.8954 23.6853 14.9989 21.4737 16.4791C19.2621 17.9593 16.6609 18.7494 13.9997 18.7494C11.3385 18.7494 8.73719 17.9593 6.52562 16.4791C4.31405 14.9989 2.59178 12.8954 1.57716 10.4352Z" stroke="#0F172A" stroke-width="2" stroke-linecap="round" stroke-linejoin="round"/>
<path d="M13.9996 13.7501C16.0707 13.7501 17.7496 12.0711 17.7496 10.0001C17.7496 7.92899 16.0707 6.25006 13.9996 6.25006C11.9286 6.25006 10.2496 7.92899 10.2496 10.0001C10.2496 12.0711 11.9286 13.7501 13.9996 13.7501Z" stroke="#0F172A" stroke-width="2" stroke-linecap="round" stroke-linejoin="round"/>
</svg>
